<svg xmlns="http://www.w3.org/2000/svg" viewBox="0 0 500 500"><g id="freepik--background-simple--inject-22"><path d="M420.69,131.2c-24.84-36.8-61.77-68.93-104.94-82.94A262.48,262.48,0,0,0,270,38C152,22,85,93,67,140c-10.3,26.89-.51,56.91,7.25,83.09C81.12,246.28,97.89,281.55,89,306c-12,33-29,79,22,102s93.16,38.26,175,9,128.76-58.68,152.94-101.94C471.54,256.74,457.77,186.13,420.69,131.2Z" style="fill:#92E3A9"></path><path d="M420.69,131.2c-24.84-36.8-61.77-68.93-104.94-82.94A262.48,262.48,0,0,0,270,38C152,22,85,93,67,140c-10.3,26.89-.51,56.91,7.25,83.09C81.12,246.28,97.89,281.55,89,306c-12,33-29,79,22,102s93.16,38.26,175,9,128.76-58.68,152.94-101.94C471.54,256.74,457.77,186.13,420.69,131.2Z" style="fill:#fff;opacity:0.7000000000000001"></path></g><g id="freepik--Window--inject-22"><polygon points="144.21 61.28 52.59 61.28 51.38 76.07 144.21 76.07 144.21 61.28" style="fill:none;stroke:gray;stroke-linecap:round;stroke-linejoin:round"></polygon><polygon points="144.21 76.07 52.59 76.07 51.38 90.87 144.21 90.87 144.21 76.07" style="fill:none;stroke:gray;stroke-linecap:round;stroke-linejoin:round"></polygon><polygon points="144.21 90.87 52.59 90.87 51.38 105.67 144.21 105.67 144.21 90.87" style="fill:none;stroke:gray;stroke-linecap:round;stroke-linejoin:round"></polygon><polygon points="144.21 105.67 52.59 105.67 51.38 120.47 144.21 120.47 144.21 105.67" style="fill:none;stroke:gray;stroke-linecap:round;stroke-linejoin:round"></polygon><polygon points="144.21 120.47 52.59 120.47 51.38 135.26 144.21 135.26 144.21 120.47" style="fill:none;stroke:gray;stroke-linecap:round;stroke-linejoin:round"></polygon><polygon points="144.21 135.26 52.59 135.26 51.38 150.06 144.21 150.06 144.21 135.26" style="fill:none;stroke:gray;stroke-linecap:round;stroke-linejoin:round"></polygon><polygon points="144.21 150.06 52.59 150.06 51.38 164.86 144.21 164.86 144.21 150.06" style="fill:none;stroke:gray;stroke-linecap:round;stroke-linejoin:round"></polygon><polygon points="144.21 164.86 52.59 164.86 51.38 179.65 144.21 179.65 144.21 164.86" style="fill:none;stroke:gray;stroke-linecap:round;stroke-linejoin:round"></polygon><polygon points="144.21 179.65 52.59 179.65 51.38 194.45 144.21 194.45 144.21 179.65" style="fill:none;stroke:gray;stroke-linecap:round;stroke-linejoin:round"></polygon><polygon points="144.21 194.45 52.59 194.45 51.38 209.25 144.21 209.25 144.21 194.45" style="fill:none;stroke:gray;stroke-linecap:round;stroke-linejoin:round"></polygon><polygon points="144.21 209.25 52.59 209.25 51.38 224.04 144.21 224.04 144.21 209.25" style="fill:none;stroke:gray;stroke-linecap:round;stroke-linejoin:round"></polygon><polygon points="144.21 224.04 52.59 224.04 51.38 238.84 144.21 238.84 144.21 224.04" style="fill:none;stroke:gray;stroke-linecap:round;stroke-linejoin:round"></polygon><polygon points="144.21 238.84 52.59 238.84 51.38 253.64 144.21 253.64 144.21 238.84" style="fill:none;stroke:gray;stroke-linecap:round;stroke-linejoin:round"></polygon><polygon points="144.21 253.64 52.59 253.64 51.38 268.44 144.21 268.44 144.21 253.64" style="fill:none;stroke:gray;stroke-linecap:round;stroke-linejoin:round"></polygon><polygon points="144.21 268.44 52.59 268.44 51.38 283.23 144.21 283.23 144.21 268.44" style="fill:none;stroke:gray;stroke-linecap:round;stroke-linejoin:round"></polygon><polygon points="238.4 61.28 146.78 61.28 145.57 76.07 238.4 76.07 238.4 61.28" style="fill:none;stroke:gray;stroke-linecap:round;stroke-linejoin:round"></polygon><polygon points="238.4 76.07 146.78 76.07 145.57 90.87 238.4 90.87 238.4 76.07" style="fill:none;stroke:gray;stroke-linecap:round;stroke-linejoin:round"></polygon><polygon points="238.4 90.87 146.78 90.87 145.57 105.67 238.4 105.67 238.4 90.87" style="fill:none;stroke:gray;stroke-linecap:round;stroke-linejoin:round"></polygon><polygon points="238.4 105.67 146.78 105.67 145.57 120.47 238.4 120.47 238.4 105.67" style="fill:none;stroke:gray;stroke-linecap:round;stroke-linejoin:round"></polygon><polygon points="238.4 120.47 146.78 120.47 145.57 135.26 238.4 135.26 238.4 120.47" style="fill:none;stroke:gray;stroke-linecap:round;stroke-linejoin:round"></polygon><polygon points="238.4 135.26 146.78 135.26 145.57 150.06 238.4 150.06 238.4 135.26" style="fill:none;stroke:gray;stroke-linecap:round;stroke-linejoin:round"></polygon><polygon points="238.4 150.06 146.78 150.06 145.57 164.86 238.4 164.86 238.4 150.06" style="fill:none;stroke:gray;stroke-linecap:round;stroke-linejoin:round"></polygon><polygon points="238.4 164.86 146.78 164.86 145.57 179.65 238.4 179.65 238.4 164.86" style="fill:none;stroke:gray;stroke-linecap:round;stroke-linejoin:round"></polygon><polygon points="238.4 179.65 146.78 179.65 145.57 194.45 238.4 194.45 238.4 179.65" style="fill:none;stroke:gray;stroke-linecap:round;stroke-linejoin:round"></polygon><polygon points="238.4 194.45 146.78 194.45 145.57 209.25 238.4 209.25 238.4 194.45" style="fill:none;stroke:gray;stroke-linecap:round;stroke-linejoin:round"></polygon><polygon points="238.4 209.25 146.78 209.25 145.57 224.04 238.4 224.04 238.4 209.25" style="fill:none;stroke:gray;stroke-linecap:round;stroke-linejoin:round"></polygon><polygon points="238.4 224.04 146.78 224.04 145.57 238.84 238.4 238.84 238.4 224.04" style="fill:none;stroke:gray;stroke-linecap:round;stroke-linejoin:round"></polygon><polygon points="238.4 238.84 146.78 238.84 145.57 253.64 238.4 253.64 238.4 238.84" style="fill:none;stroke:gray;stroke-linecap:round;stroke-linejoin:round"></polygon><polygon points="238.4 253.64 146.78 253.64 145.57 268.44 238.4 268.44 238.4 253.64" style="fill:none;stroke:gray;stroke-linecap:round;stroke-linejoin:round"></polygon><polygon points="238.4 268.44 146.78 268.44 145.57 283.23 238.4 283.23 238.4 268.44" style="fill:none;stroke:gray;stroke-linecap:round;stroke-linejoin:round"></polygon><rect x="49.24" y="49.82" width="193.75" height="11.16" style="fill:none;stroke:gray;stroke-linecap:round;stroke-linejoin:round"></rect><line x1="242.99" y1="60.98" x2="242.99" y2="257.57" style="fill:none;stroke:gray;stroke-linecap:round;stroke-linejoin:round"></line><line x1="240.88" y1="61.3" x2="240.88" y2="196.18" style="fill:none;stroke:gray;stroke-linecap:round;stroke-linejoin:round"></line><rect x="241.76" y="257.14" width="2.6" height="5.01" style="fill:#263238;stroke:gray;stroke-linecap:round;stroke-linejoin:round"></rect><rect x="239.41" y="195.1" width="2.6" height="5.01" style="fill:#263238;stroke:gray;stroke-linecap:round;stroke-linejoin:round"></rect></g><g id="freepik--Plant--inject-22"><path d="M104,269.35S91.7,262.52,90.79,278,87.6,394.09,87.6,394.09" style="fill:none;stroke:#263238;stroke-linecap:round;stroke-linejoin:round;stroke-width:2px"></path><path d="M84.41,279.36s10,22.31,5.47,113.37" style="fill:none;stroke:#263238;stroke-linecap:round;stroke-linejoin:round;stroke-width:2px"></path><path d="M94.26,272.47s-4.71,3-7.38-.44,1.81-9.76-2.15-12.46S74,261,74,261s5.25,1.54,5.08,4.41-2.7,4-3,2.7-2.85-7.57-7.12-4.94a10.59,10.59,0,0,0-4.92,6.7s9.94-1.06,10.54,2.68-4.07-.66-8.17-.9-7.84.36-7.57,2.85a32.57,32.57,0,0,1-.39,6.55,12.23,12.23,0,0,1,8-2.82c4.51.27,4.34,3.14.24,2.9S59,284.78,59,284.78s3.74,6.39,8.49,9.55,6.46,2,7-.41-.72-8.68,2.15-8.51-4.75,10.82-1.09,11.45,6.61-.43,7.57-2.84l1-2.41s-1.28-6.25-.72-8.68,1.23.07,1.88,3,1.06,9.93,2.31,9.59,5.26-5.44,6.2-7.44-5.28-8.13-5.21-9.36,4.87,1.11,5.62,2.39,1.47,3,1.47,3,3-1.88,2.92-7.64S94.26,272.47,94.26,272.47Z" style="fill:#92E3A9"></path><path d="M94.26,272.47s-4.71,3-7.38-.44,1.81-9.76-2.15-12.46S74,261,74,261s5.25,1.54,5.08,4.41-2.7,4-3,2.7-2.85-7.57-7.12-4.94a10.59,10.59,0,0,0-4.92,6.7s9.94-1.06,10.54,2.68-4.07-.66-8.17-.9-7.84.36-7.57,2.85a32.57,32.57,0,0,1-.39,6.55,12.23,12.23,0,0,1,8-2.82c4.51.27,4.34,3.14.24,2.9S59,284.78,59,284.78s3.74,6.39,8.49,9.55,6.46,2,7-.41-.72-8.68,2.15-8.51-4.75,10.82-1.09,11.45,6.61-.43,7.57-2.84l1-2.41s-1.28-6.25-.72-8.68,1.23.07,1.88,3,1.06,9.93,2.31,9.59,5.26-5.44,6.2-7.44-5.28-8.13-5.21-9.36,4.87,1.11,5.62,2.39,1.47,3,1.47,3,3-1.88,2.92-7.64S94.26,272.47,94.26,272.47Z" style="fill:#263238;opacity:0.30000000000000004"></path><path d="M70.42,286c3.06-3.79,7.58-8.92,11.37-11.37" style="fill:none;stroke:#263238;stroke-linecap:round;stroke-linejoin:round"></path><path d="M66.86,290.59s.79-1.09,2.07-2.73" style="fill:none;stroke:#263238;stroke-linecap:round;stroke-linejoin:round"></path><path d="M83.79,275.55s4.56,6.44,5.4,13.07" style="fill:none;stroke:#263238;stroke-linecap:round;stroke-linejoin:round"></path><path d="M78.63,279.36s1.28-.75.8,7.45" style="fill:none;stroke:#263238;stroke-linecap:round;stroke-linejoin:round"></path><path d="M82,271.74s2.6-2.31,1.23-6.92" style="fill:none;stroke:#263238;stroke-linecap:round;stroke-linejoin:round"></path><line x1="78.44" y1="275.65" x2="76.58" y2="272.25" style="fill:none;stroke:#263238;stroke-linecap:round;stroke-linejoin:round"></line><path d="M74.53,279.12s-5.9-4.46-9.59-4.68" style="fill:none;stroke:#263238;stroke-linecap:round;stroke-linejoin:round"></path><path d="M111,260.32s-.18,6.76-5.46,7.09-8.54-8.47-13.94-6.35-5.92,11.76-5.92,11.76,5.12-4.21,7.88-2.09,2.12,5.4.63,4.88-9.52-2.31-9.79,3.75a12.82,12.82,0,0,0,3.35,9.5s5.71-10.67,9.86-8.72-3.43,3.63-6.46,7.57-5,8.09-2.31,9.52a39.75,39.75,0,0,1,6.3,4.85,14.75,14.75,0,0,1,2.61-9.91c3.34-4.33,6.1-2.2,3.06,1.73S99.3,304,99.3,304s8.94.61,15.34-2,6.44-5.08,4.38-7.3-9.19-5.19-7.06-7.95,7.6,12.13,10.72,8.89,4.07-6.91,2.32-9.51l-1.76-2.61s-7.12-3-9.18-5.2.91-1.18,4.27.16,10.67,5.71,11.19,4.22-1.87-9-3.24-11.28-11.73-.25-12.91-1.16,4.43-4.12,6.22-4a37.53,37.53,0,0,1,4,.55s.16-4.28-5.66-8.13S111,260.32,111,260.32Z" style="fill:#92E3A9"></path><path d="M111,260.32s-.18,6.76-5.46,7.09-8.54-8.47-13.94-6.35-5.92,11.76-5.92,11.76,5.12-4.21,7.88-2.09,2.12,5.4.63,4.88-9.52-2.31-9.79,3.75a12.82,12.82,0,0,0,3.35,9.5s5.71-10.67,9.86-8.72-3.43,3.63-6.46,7.57-5,8.09-2.31,9.52a39.75,39.75,0,0,1,6.3,4.85,14.75,14.75,0,0,1,2.61-9.91c3.34-4.33,6.1-2.2,3.06,1.73S99.3,304,99.3,304s8.94.61,15.34-2,6.44-5.08,4.38-7.3-9.19-5.19-7.06-7.95,7.6,12.13,10.72,8.89,4.07-6.91,2.32-9.51l-1.76-2.61s-7.12-3-9.18-5.2.91-1.18,4.27.16,10.67,5.71,11.19,4.22-1.87-9-3.24-11.28-11.73-.25-12.91-1.16,4.43-4.12,6.22-4a37.53,37.53,0,0,1,4,.55s.16-4.28-5.66-8.13S111,260.32,111,260.32Z" style="fill:#263238;opacity:0.2"></path><path d="M108.29,293.39c-1.7-5.65-3.76-13.67-3.63-19.13" style="fill:none;stroke:#263238;stroke-linecap:round;stroke-linejoin:round"></path><path d="M110.49,300.1s-.56-1.54-1.33-3.93" style="fill:none;stroke:#263238;stroke-linecap:round;stroke-linejoin:round"></path><path d="M107,272.9s9.55-.17,16.76,3.5" style="fill:none;stroke:#263238;stroke-linecap:round;stroke-linejoin:round"></path><path d="M107.27,280.66s.12-1.79,8,4.28" style="fill:none;stroke:#263238;stroke-linecap:round;stroke-linejoin:round"></path><path d="M101.91,272.14s-.54-4.19-6.09-5.95" style="fill:none;stroke:#263238;stroke-linecap:round;stroke-linejoin:round"></path><line x1="103.42" y1="278.32" x2="98.75" y2="277.86" style="fill:none;stroke:#263238;stroke-linecap:round;stroke-linejoin:round"></line><path d="M104.23,284.6S95.74,287.47,93,291" style="fill:none;stroke:#263238;stroke-linecap:round;stroke-linejoin:round"></path><path d="M54.37,305.32s26.86,17.75,26.4,86.5" style="fill:none;stroke:#263238;stroke-linecap:round;stroke-linejoin:round;stroke-width:2px"></path><path d="M87.49,300.63s-.86,7.78-7,7.66S71.45,297.71,65,299.65s-7.94,13-7.94,13,6.31-4.38,9.29-1.66,1.94,6.43.27,5.69-10.76-3.57-11.66,3.4a14.83,14.83,0,0,0,3,11.27s7.6-11.77,12.2-9.13-4.3,3.87-8.17,8.13-6.51,8.86-3.57,10.76a45.74,45.74,0,0,1,6.82,6.2s-.31-6.5,4-11.19,7.24-2,3.37,2.29S69.84,350,69.84,350s10.27,1.55,17.9-.85,7.9-5.26,5.73-8-10.1-6.86-7.39-9.84S93.7,346,97.61,342.54s5.35-7.59,3.57-10.77l-1.78-3.18s-7.94-4.11-10.1-6.86,1.16-1.27,4.92.59,11.77,7.59,12.5,5.93-1.31-10.54-2.66-13.33-13.52-1.4-14.8-2.56,5.5-4.33,7.56-4a44.47,44.47,0,0,1,4.53,1s.58-4.92-5.77-9.92S87.49,300.63,87.49,300.63Z" style="fill:#92E3A9"></path><path d="M87.49,300.63s-.86,7.78-7,7.66S71.45,297.71,65,299.65s-7.94,13-7.94,13,6.31-4.38,9.29-1.66,1.94,6.43.27,5.69-10.76-3.57-11.66,3.4a14.83,14.83,0,0,0,3,11.27s7.6-11.77,12.2-9.13-4.3,3.87-8.17,8.13-6.51,8.86-3.57,10.76a45.74,45.74,0,0,1,6.82,6.2s-.31-6.5,4-11.19,7.24-2,3.37,2.29S69.84,350,69.84,350s10.27,1.55,17.9-.85,7.9-5.26,5.73-8-10.1-6.86-7.39-9.84S93.7,346,97.61,342.54s5.35-7.59,3.57-10.77l-1.78-3.18s-7.94-4.11-10.1-6.86,1.16-1.27,4.92.59,11.77,7.59,12.5,5.93-1.31-10.54-2.66-13.33-13.52-1.4-14.8-2.56,5.5-4.33,7.56-4a44.47,44.47,0,0,1,4.53,1s.58-4.92-5.77-9.92S87.49,300.63,87.49,300.63Z" style="fill:#263238;opacity:0.30000000000000004"></path><path d="M81.23,338.54c-1.44-6.69-3-16.14-2.39-22.43" style="fill:none;stroke:#263238;stroke-linecap:round;stroke-linejoin:round"></path><path d="M83.13,346.48s-.5-1.82-1.17-4.66" style="fill:none;stroke:#263238;stroke-linecap:round;stroke-linejoin:round"></path><path d="M81.63,314.76s11,.7,19,5.62" style="fill:none;stroke:#263238;stroke-linecap:round;stroke-linejoin:round"></path><path d="M81.24,323.74s.31-2.05,8.83,5.7" style="fill:none;stroke:#263238;stroke-linecap:round;stroke-linejoin:round"></path><path d="M75.86,313.4s-.23-4.88-6.46-7.44" style="fill:none;stroke:#263238;stroke-linecap:round;stroke-linejoin:round"></path><line x1="77.02" y1="320.68" x2="71.68" y2="319.71" style="fill:none;stroke:#263238;stroke-linecap:round;stroke-linejoin:round"></line><path d="M77.37,328s-10.07,2.52-13.56,6.35" style="fill:none;stroke:#263238;stroke-linecap:round;stroke-linejoin:round"></path><path d="M64.84,359.49S82.14,372.7,84,392.27l-3.64-65.56" style="fill:none;stroke:#263238;stroke-linecap:round;stroke-linejoin:round;stroke-width:2px"></path><path d="M106.72,349.93C84,345.83,84,392.27,84,392.27" style="fill:none;stroke:#263238;stroke-linecap:round;stroke-linejoin:round;stroke-width:2px"></path><path d="M86.69,391.82s-13.2-96.06,25-96.06" style="fill:none;stroke:#263238;stroke-linecap:round;stroke-linejoin:round;stroke-width:2px"></path><path d="M98.05,347.17c-3.11-3.5-9.72-3.5-13.6,5.44s-.39,7.39-.39,7.39,7.38-2.33,12-3.89S107,350.67,107.38,353s-3.11,4.67-7.39,5.44-15.54,3.89-14.38,6.22S89.5,374,89.5,374A99.3,99.3,0,0,1,100,366.22c5.06-3.11,8.17-2,5.44,1.55s-10.49,7.39-8.94,12.05,10.89,10.49,10.89,10.49,1.16-9.71,3.88-12.82,2.73.39,1.95,5.83a63.08,63.08,0,0,0-.78,7l10.88,3.89a77.69,77.69,0,0,1,5.83-7.77l2-1.95s-8.55-7.38-8.94-12.05,5.83,0,7.77.78,5.05,6.22,5.05,6.22,1.95-8.94,2.34-12.05l.38-3.11s-8.16-3.11-11.27-3.11-4.66,2.33-4.66-.77,3.11-5.06,6.61-4.67a61,61,0,0,1,9.32,2.33s2.34-1.94,1.56-7.77-2.72-5.83-7.39-4.28-7.77,5.06-11.27,5.06-1.55-4.28.78-5.44,8.16-3.5,9.33-3.89-6.22-5.83-10.11-6.61-8.92,2-8.55,5.83C112.82,349.11,101.16,350.67,98.05,347.17Z" style="fill:#92E3A9"></path><path d="M123.07,387.19q.18,1.76.24,3.51" style="fill:none;stroke:#263238;stroke-linecap:round;stroke-linejoin:round"></path><path d="M115.26,359.29a102.94,102.94,0,0,1,7.32,24.08" style="fill:none;stroke:#263238;stroke-linecap:round;stroke-linejoin:round"></path><path d="M113.86,356.17c-1.92-4.14-3.37-6.67-3.37-6.67a11.44,11.44,0,0,0,5.05-4.66,12.93,12.93,0,0,1,3.89-4.67" style="fill:none;stroke:#263238;stroke-linecap:round;stroke-linejoin:round"></path><path d="M96.88,362.72s14-5.83,14-4.67" style="fill:none;stroke:#263238;stroke-linecap:round;stroke-linejoin:round"></path><path d="M118.65,355.33s6.22-3.11,11.66-3.11" style="fill:none;stroke:#263238;stroke-linecap:round;stroke-linejoin:round"></path><path d="M116.32,364.66a53.71,53.71,0,0,0-7.39,7.39,33.6,33.6,0,0,0-5.44,8.94" style="fill:none;stroke:#263238;stroke-linecap:round;stroke-linejoin:round"></path><path d="M120.59,366.22s8.16-2.34,12.44,1.55" style="fill:none;stroke:#263238;stroke-linecap:round;stroke-linejoin:round"></path><path d="M135.38,313.7c-4.23-2.5-8.91-2.56-11.21-5.2s2.21-4,4.62-3,8,3.87,9.05,4.49.33-8.51-1.63-12-7.33-5.45-10-2.63c-5.66,5.94-14.47-1.85-13.87-6.49s-3.73-9.63-13-6.71-5.83,4.55-5.83,4.55,6.6,4.05,10.83,6.55,11.25,4.65,9.74,6.47-5.56.71-9-2S92,288.59,91,291s-4.5,9.05-4.5,9.05a98.52,98.52,0,0,1,12.75,2.83c5.66,1.78,6.82,4.89,2.39,5.13s-12.45-3.08-15,1.15-.79,15.1-.79,15.1,8.1-5.49,12.23-5.48,1.49,2.31-3.13,5.29a62.34,62.34,0,0,0-5.79,4l4.2,10.77a77.81,77.81,0,0,1,9.69-.7l2.74.2s0-11.3,3.24-14.65,3.82,4.4,4.51,6.38-1.39,7.89-1.39,7.89,8-4.39,10.63-6.14l2.6-1.74s-3-8.21-5-10.55-4.81-2-2.47-4,5.86-1,7.86,1.94A60.09,60.09,0,0,1,130.1,326s3,.49,6.89-3.92S139.61,316.2,135.38,313.7ZM98.59,326.14c-3.1-1.56,4.28-4.66,4.28-4.66C105.59,321.09,101.7,327.69,98.59,326.14Zm5.24-14.51c-1.32-.66,2.65-2,2.65-2C112.23,310.75,105.16,312.29,103.83,311.63Z" style="fill:#92E3A9"></path><path d="M98.51,334.06c-.81.85-1.64,1.68-2.49,2.48" style="fill:none;stroke:#263238;stroke-linecap:round;stroke-linejoin:round"></path><path d="M114.46,309.87a102.6,102.6,0,0,1-13.39,21.31" style="fill:none;stroke:#263238;stroke-linecap:round;stroke-linejoin:round"></path><path d="M115.9,306.77c1.87-4.17,2.82-6.92,2.82-6.92a11.54,11.54,0,0,0,6.84.76,12.93,12.93,0,0,1,6.07-.13" style="fill:none;stroke:#263238;stroke-linecap:round;stroke-linejoin:round"></path><path d="M112.52,305.75c.88-.77-12.7-7.51-12.7-7.51" style="fill:none;stroke:#263238;stroke-linecap:round;stroke-linejoin:round"></path><path d="M119.67,309.83s6.42,2.66,10,6.77" style="fill:none;stroke:#263238;stroke-linecap:round;stroke-linejoin:round"></path><path d="M111.1,314.19a53.85,53.85,0,0,0-10.42-.74,33.8,33.8,0,0,0-10.32,1.75" style="fill:none;stroke:#263238;stroke-linecap:round;stroke-linejoin:round"></path><path d="M112.73,318.44s7.11,4.63,7,10.41" style="fill:none;stroke:#263238;stroke-linecap:round;stroke-linejoin:round"></path><path d="M75,367.55c-3.4-2-7.17-2.05-9-4.18s1.77-3.2,3.71-2.4,6.43,3.12,7.29,3.62.26-6.86-1.32-9.63-5.9-4.38-8.05-2.12c-4.55,4.78-11.65-1.48-11.17-5.22s-3-7.75-10.48-5.4-4.69,3.66-4.69,3.66,5.31,3.26,8.72,5.28,9,3.74,7.83,5.2-4.47.58-7.2-1.61-10.56-7.4-11.37-5.46-3.61,7.28-3.61,7.28a80.17,80.17,0,0,1,10.26,2.28c4.55,1.43,5.48,3.93,1.92,4.13s-10-2.49-12,.92-.63,12.15-.63,12.15,6.52-4.42,9.84-4.41,1.2,1.86-2.51,4.26a52,52,0,0,0-4.67,3.22l3.38,8.66a62.06,62.06,0,0,1,7.8-.55l2.21.15s0-9.09,2.6-11.79,3.08,3.55,3.63,5.14-1.11,6.35-1.11,6.35,6.46-3.54,8.55-4.94l2.1-1.41s-2.42-6.6-4.06-8.49-3.88-1.6-2-3.24,4.71-.78,6.32,1.55a49.52,49.52,0,0,1,3.51,6.9s2.41.4,5.54-3.15S78.39,369.57,75,367.55Zm-29.6,10c-2.5-1.26,3.44-3.76,3.44-3.76C51,373.5,47.88,378.82,45.38,377.57Zm4.21-11.68c-1.06-.54,2.14-1.6,2.14-1.6C56.35,365.18,50.66,366.42,49.59,365.89Z" style="fill:#92E3A9"></path><path d="M45.31,383.94c-.65.69-1.31,1.35-2,2" style="fill:none;stroke:#263238;stroke-linecap:round;stroke-linejoin:round"></path><path d="M58.15,364.47a82.49,82.49,0,0,1-10.77,17.15" style="fill:none;stroke:#263238;stroke-linecap:round;stroke-linejoin:round"></path><path d="M59.31,362c1.5-3.36,2.27-5.57,2.27-5.57a9.3,9.3,0,0,0,5.5.61,10.34,10.34,0,0,1,4.88-.1" style="fill:none;stroke:#263238;stroke-linecap:round;stroke-linejoin:round"></path><path d="M46.37,355.11s10.93,5.43,10.22,6.05" style="fill:none;stroke:#263238;stroke-linecap:round;stroke-linejoin:round"></path><path d="M62.34,364.44s5.17,2.14,8,5.45" style="fill:none;stroke:#263238;stroke-linecap:round;stroke-linejoin:round"></path><path d="M55.44,368a43.27,43.27,0,0,0-8.38-.59,26.9,26.9,0,0,0-8.3,1.41" style="fill:none;stroke:#263238;stroke-linecap:round;stroke-linejoin:round"></path><path d="M56.75,371.37s5.73,3.73,5.62,8.38" style="fill:none;stroke:#263238;stroke-linecap:round;stroke-linejoin:round"></path><path d="M61.1,303.37s-4.28,3.11-7,0,1.17-9.33-2.72-11.66-10.11,2-10.11,2,5.06,1.16,5.06,3.88-2.34,3.89-2.72,2.72-3.11-7-7-4.27a10,10,0,0,0-4.28,6.6s9.33-1.55,10.11,2-3.89-.39-7.77-.39-7.39.78-7,3.11a30.54,30.54,0,0,1,0,6.22,11.56,11.56,0,0,1,7.39-3.11c4.27,0,4.27,2.72.38,2.72s-7,3.89-7,3.89,3.88,5.83,8.55,8.55,6.22,1.55,6.61-.78-1.17-8.16,1.55-8.16-3.89,10.49-.39,10.88,6.22-.78,7-3.11l.78-2.33s-1.56-5.83-1.17-8.16,1.17,0,1.94,2.72,1.56,9.32,2.72,8.94,4.67-5.45,5.45-7.39S56,310.76,56,309.59s4.67.78,5.45,1.94S63,314.25,63,314.25s2.72-1.94,2.33-7.38S61.1,303.37,61.1,303.37Z" style="fill:#92E3A9"></path><path d="M39.32,317.47c2.69-3.75,6.67-8.85,10.12-11.38" style="fill:none;stroke:#263238;stroke-linecap:round;stroke-linejoin:round"></path><path d="M36.22,322s.68-1.08,1.8-2.7" style="fill:none;stroke:#263238;stroke-linecap:round;stroke-linejoin:round"></path><path d="M51.38,306.87s4.66,5.83,5.83,12.05" style="fill:none;stroke:#263238;stroke-linecap:round;stroke-linejoin:round"></path><path d="M46.72,310.76s1.16-.78,1.16,7" style="fill:none;stroke:#263238;stroke-linecap:round;stroke-linejoin:round"></path><path d="M49.44,303.37s2.33-2.33.77-6.61" style="fill:none;stroke:#263238;stroke-linecap:round;stroke-linejoin:round"></path><line x1="46.33" y1="307.26" x2="44.38" y2="304.15" style="fill:none;stroke:#263238;stroke-linecap:round;stroke-linejoin:round"></line><path d="M42.83,310.76s-5.83-3.89-9.33-3.89" style="fill:none;stroke:#263238;stroke-linecap:round;stroke-linejoin:round"></path><rect x="70.3" y="390.45" width="30.05" height="43.25" style="fill:#263238;stroke:#263238;stroke-linecap:round;stroke-linejoin:round;stroke-width:2px"></rect></g><g id="freepik--Door--inject-22"><rect x="262.73" y="49.77" width="197.71" height="379.66" style="fill:none;stroke:gray;stroke-linecap:round;stroke-linejoin:round"></rect><rect x="396.54" y="131.93" width="34.46" height="152.07" style="fill:none;stroke:gray;stroke-linecap:round;stroke-linejoin:round"></rect><rect x="439.54" y="242" width="10.46" height="42" style="fill:none;stroke:gray;stroke-linecap:round;stroke-linejoin:round"></rect></g><g id="freepik--Floor--inject-22"><line x1="468" y1="429.43" x2="30.91" y2="429.43" style="fill:none;stroke:#263238;stroke-linecap:round;stroke-linejoin:round"></line><line x1="484.96" y1="429.43" x2="476" y2="429.43" style="fill:none;stroke:#263238;stroke-linecap:round;stroke-linejoin:round"></line></g><g id="freepik--character-2--inject-22"><ellipse cx="312.5" cy="457" rx="65.5" ry="12" style="fill:#263238;stroke:#263238;stroke-linecap:round;stroke-linejoin:round;stroke-width:2px"></ellipse><path d="M301.19,128.42a9.24,9.24,0,0,1-6.6-7.35c-1.37-6.27,10.3-8.07,15.25-11.36s15.44-3.69,23-2.38S350.4,112,352.88,117.4s7.17,16.34,6.44,23.14a32.3,32.3,0,0,1-4.27,13.57c-1.56,2.64-.55,5-.18,6.36s-.41,1.49-2.5,4.32-2.45,3.82-9.26,3.09-9.26-4.06-11-6.55-5.53-12.58-8.6-17.25-3.76-10.1-8.73-13.69S307,126.49,301.19,128.42Z" style="fill:#ebebeb;stroke:#b0b0b0;stroke-linecap:round;stroke-linejoin:round"></path><path d="M270.79,440.14s-1.24,5.88-3.72,8.67-7.74,7.43-5.57,11.45,14.24,8.36,21.36,5.88,6.5-9,10.21-12.07,5-5.26,3.41-10.84-9.91-11.14-15.48-12.38S270.79,440.14,270.79,440.14Z" style="fill:#fff;stroke:#263238;stroke-linecap:round;stroke-linejoin:round"></path><path d="M294.93,451.59c-1.55,1.55-4.64,3.1-6.19,5.27s-2.79,6.81-6.19,6.81-7.74-2.79-9.91-4.65-4.95,0-6.81,1.24a25.88,25.88,0,0,1-2.92,1.65c4,3.43,13.8,6.37,19.95,4.23,7.12-2.47,6.5-9,10.21-12.07,1.87-1.56,3.11-2.88,3.69-4.52C296.08,450.36,295.41,451.11,294.93,451.59Z" style="fill:#92E3A9;stroke:#263238;stroke-linecap:round;stroke-linejoin:round"></path><path d="M348.19,432.5s1.28,6.11,3.85,9,8,7.72,5.79,11.9-14.79,8.68-22.18,6.1S328.9,450.18,325,447s-5.14-5.47-3.53-11.25,10.28-11.57,16.07-12.86S348.19,432.5,348.19,432.5Z" style="fill:#fff;stroke:#263238;stroke-linecap:round;stroke-linejoin:round"></path><path d="M323.11,444.4c1.61,1.6,4.82,3.21,6.43,5.46s2.9,7.07,6.43,7.07,8-2.89,10.29-4.82,5.14,0,7.07,1.29a27.1,27.1,0,0,0,3,1.71c-4.12,3.56-14.33,6.61-20.71,4.39-7.39-2.57-6.75-9.32-10.61-12.53-1.94-1.62-3.23-3-3.82-4.69C321.93,443.11,322.61,443.9,323.11,444.4Z" style="fill:#92E3A9;stroke:#263238;stroke-linecap:round;stroke-linejoin:round"></path><path d="M270.07,268.89s-1.6,23.14-1.6,33.11-1.61,27-1.61,29.25-2.89,44.68-2.57,58.5,9.32,37.61,9.32,37.61-6.11.32-5.79,3.86S271,442.47,271,442.47s3.86-1.29,11.89-1.29S299,447,299,447s-.32-3.86,1.61-10.61S299,428,299.33,422.22s1-37.29,2.57-45.33,9.32-46.61,9.32-46.61,9.32,40.51,11.57,44.36a11.24,11.24,0,0,1,1.29,7.72s-1.29,2.25-3.86,10.28-1.93,15.11-1.29,21.22a72.36,72.36,0,0,1,.65,8.68c0,1.28-1.61,1.93-1.93,4.82s3.21,10.29,3.21,10.29,9-2.9,15.43-2.9a52.18,52.18,0,0,1,13.5,2.25,15.39,15.39,0,0,0,1.29-6.75c-.32-3.21-1-8.36-1-12.21s6.75-37,6.75-44.68,3.86-43.4,3.86-45.33,1.93-32.46,1.93-42.11a197.27,197.27,0,0,0-1.28-20.25l-89.69-6.43Z" style="fill:#666;stroke:#263238;stroke-linecap:round;stroke-linejoin:round"></path><polyline points="298.04 319.68 311.22 330.28 299.65 325.46" style="fill:none;stroke:#263238;stroke-linecap:round;stroke-linejoin:round"></polyline><path d="M307,295.89s-1,16.07-1,17.68" style="fill:none;stroke:#263238;stroke-linecap:round;stroke-linejoin:round"></path><line x1="311.22" y1="295.57" x2="310.9" y2="306.82" style="fill:none;stroke:#263238;stroke-linecap:round;stroke-linejoin:round"></line><line x1="286.15" y1="293" x2="284.86" y2="305.85" style="fill:none;stroke:#263238;stroke-linecap:round;stroke-linejoin:round"></line><line x1="288.72" y1="293" x2="289.36" y2="305.85" style="fill:none;stroke:#263238;stroke-linecap:round;stroke-linejoin:round"></line><line x1="338.22" y1="293.64" x2="338.86" y2="308.75" style="fill:none;stroke:#263238;stroke-linecap:round;stroke-linejoin:round"></line><line x1="341.11" y1="293.96" x2="344.65" y2="305.53" style="fill:none;stroke:#263238;stroke-linecap:round;stroke-linejoin:round"></line><path d="M298.36,424.15s-3.21-8.68-4.5-14.15-3.21-18-3.21-18" style="fill:none;stroke:#263238;stroke-linecap:round;stroke-linejoin:round"></path><path d="M324.08,377.54s4.5,14.46,9.64,18" style="fill:none;stroke:#263238;stroke-linecap:round;stroke-linejoin:round"></path><path d="M274.58,439.25s15.75-6.75,19.28-5.14.32,3.54-3.53,2.89" style="fill:none;stroke:#263238;stroke-linecap:round;stroke-linejoin:round"></path><path d="M346.58,432.82s-4.82.33-13.5-1.6-13.82-1-11.25,0a16.53,16.53,0,0,0,5.14,1" style="fill:none;stroke:#263238;stroke-linecap:round;stroke-linejoin:round"></path><path d="M295.31,170.8s-19.17-2.52-25.77,4.07a31.37,31.37,0,0,0-9.22,21.43c0,6.34-3.73,28.49-7.28,39.91s-2.54,22.06-2.29,27.13a92.26,92.26,0,0,0,2,12.68v2.54s-5.07,7.1-5.32,9.63,3.29,9.13,3.55,10.4,1.27,1.52,4.06,3,6.08.26,7.86.26,2-1.52,4.31-2.79,4.82-5.07,4.82-8.12-2.54-8.37-4.06-10.65a16.22,16.22,0,0,1-2-4.06l2.54-5.32s6.08,17.24,24.09,22.32,47.67-1,55-3.3,10.65-6.34,10.65-6.34l5.33-4.57a5.24,5.24,0,0,1-.51,5.08c-1.78,2.53-4.06,4.31-4.06,7.35a41.1,41.1,0,0,0,1.27,8.62c.51,2.28,3,2.54,3.55.51s2.28,3,6.08,4.06,6.6-2.29,9.39-6.6,3.8-6.08,2.53-9.89-4.05-6.08-3.55-9.63,8.37-23.33,9.13-41.85-8.62-52-10.39-57.06-9.39-14.2-17-14.2-15,2.54-18.51,2.54a50.82,50.82,0,0,1-6.85-.51l-36,3.55Z" style="fill:#92E3A9;stroke:#263238;stroke-linecap:round;stroke-linejoin:round"></path><path d="M268.51,271s4.56-12.94,7.86-26.63,3.29-23.84,3.29-33,3.3-21.81,3.3-21.81" style="fill:none;stroke:#263238;stroke-linecap:round;stroke-linejoin:round"></path><path d="M268,280.33a16.5,16.5,0,0,1-2-3.94c-4.89-2.56-10.45-.23-13.23,1.31v.86s-5.07,7.1-5.32,9.63,3.29,9.13,3.55,10.4,1.27,1.52,4.06,3,6.08.26,7.86.26,2-1.52,4.31-2.79,4.82-5.07,4.82-8.12S269.52,282.61,268,280.33Z" style="fill:#fff;stroke:#263238;stroke-linecap:round;stroke-linejoin:round"></path><path d="M381.86,288.19c-.79-2.38-2.18-4.17-3-6.05a12.79,12.79,0,0,0-6.39-1.81c-6.09,0-8.37,2.79-8.37,2.79l-.52.15a6.49,6.49,0,0,1-.49.87c-1.78,2.53-4.06,4.31-4.06,7.35a41.1,41.1,0,0,0,1.27,8.62c.51,2.28,3,2.54,3.55.51s2.28,3,6.08,4.06,6.6-2.29,9.39-6.6S383.13,292,381.86,288.19Z" style="fill:#fff;stroke:#263238;stroke-linecap:round;stroke-linejoin:round"></path><path d="M363.61,279.06s.76-14.2-3.3-26.62-7.1-19-6.09-29.42,5.07-38.8,5.58-42.61" style="fill:none;stroke:#263238;stroke-linecap:round;stroke-linejoin:round"></path><path d="M270.28,265.62s7.61,15,24.6,21.31,37,3.8,46.41.25,19-11.41,20.29-13.7a25.63,25.63,0,0,0,1.77-3.8" style="fill:none;stroke:#263238;stroke-linecap:round;stroke-linejoin:round"></path><path d="M260.14,202.17s.54,10.85.54,18.45" style="fill:none;stroke:#263238;stroke-linecap:round;stroke-linejoin:round"></path><path d="M357.44,197.93s-4.88,16-7.05,21.16" style="fill:none;stroke:#263238;stroke-linecap:round;stroke-linejoin:round"></path><path d="M378.06,182.74s4.34,12.75,2.44,22-6,21.71-6,23.88" style="fill:none;stroke:#263238;stroke-linecap:round;stroke-linejoin:round"></path><path d="M306.29,193.85l12.17,23.08,13.45-26.12s-4.32-7.1-11.67-8.37S304,187.51,306.29,193.85Z" style="fill:#fff;stroke:#263238;stroke-linecap:round;stroke-linejoin:round"></path><path d="M317.45,192.59a12.77,12.77,0,0,0-5.83,1.77c-3.05,1.78-8.88,6.09-8.88,6.09s-1.27-11.67-1-17.5,13.44-16.74,21.81-19.78,14.2,0,15.72,4.82,1.27,16.74-1.27,22.57a69.92,69.92,0,0,1-6.34,11.16s-7.86-6.09-9.38-7.36S317.45,192.59,317.45,192.59Z" style="fill:#fff;stroke:#263238;stroke-linecap:round;stroke-linejoin:round"></path><path d="M304.48,121.07s-6.93,10-7.13,14.11-.92,10.88-2.39,13.16-4.42,7.08-3.68,11.55,3.61,14.05,4.63,15.86,9.73,4.71,9.73,4.71S314.72,189,316,190.84s7,.51,13.84-8.51,6.07-17.88,6.07-17.88,4.48,1.46,6.34-2.24,3.84-13,1.53-14.22-8.61,3-9.17,3.64S332.93,149,330,145s-6.74-5.36-8.58-10.92-4-10.19-7.41-12.75S307.18,118.68,304.48,121.07Z" style="fill:#fff;stroke:#263238;stroke-linecap:round;stroke-linejoin:round"></path><path d="M342.79,145.49s-1.94.18-4.54,3.72c-4.37,5.95-5.67,4-5.77,0-.06-2.06-4.13-2.48-6.61-5.37a173.42,173.42,0,0,1-13.2-18.57c-3.3-5.77-8.19-4.2-8.19-4.2s-8.73-5.29,9-7.76" style="fill:#ebebeb;stroke:#b0b0b0;stroke-linecap:round;stroke-linejoin:round"></path><path d="M305.21,139.2s1.27,4,.69,5-5.69,12.07-5.69,12.07.6,3.48,3.86,2.61,4.08.68,5.52.84,2.27-.73,1.52-2.76" style="fill:none;stroke:#263238;stroke-linecap:round;stroke-linejoin:round"></path><path d="M297.76,160.83a8,8,0,0,0,3.43,2.08c1.91.45,6.22,1.16,7.67,1.31s3.63-2,3.63-2" style="fill:none;stroke:#263238;stroke-linecap:round;stroke-linejoin:round"></path><path d="M299.68,165.67s4.1,2.64,8.38,1.39" style="fill:none;stroke:#263238;stroke-linecap:round;stroke-linejoin:round"></path><line x1="314.39" y1="144.58" x2="320.61" y2="147.93" style="fill:none;stroke:#263238;stroke-linecap:round;stroke-linejoin:round"></line><line x1="303.81" y1="143.19" x2="299.36" y2="143.69" style="fill:none;stroke:#263238;stroke-linecap:round;stroke-linejoin:round"></line><path d="M304.67,137.43a6.55,6.55,0,0,0-6-.65" style="fill:none;stroke:#b0b0b0;stroke-linecap:round;stroke-linejoin:round;stroke-width:2px"></path><path d="M312.28,139.23s4.17-2.48,8.52,2.38" style="fill:none;stroke:#b0b0b0;stroke-linecap:round;stroke-linejoin:round;stroke-width:2px"></path><path d="M311.94,133.34s-3.5,3-2.45,4.61" style="fill:none;stroke:#263238;stroke-linecap:round;stroke-linejoin:round"></path><path d="M314,148.19s-.53,2.63,3.92,4.33" style="fill:none;stroke:#263238;stroke-linecap:round;stroke-linejoin:round"></path><path d="M303.49,146.09a13.64,13.64,0,0,1-4.41,2.45" style="fill:none;stroke:#263238;stroke-linecap:round;stroke-linejoin:round"></path><path d="M301.63,144.74a1.35,1.35,0,0,1-1.47,1.19,1.34,1.34,0,0,1,.28-2.66A1.35,1.35,0,0,1,301.63,144.74Z" style="fill:#263238"></path><path d="M316.7,146.9a1.33,1.33,0,1,1-2.65-.29,1.32,1.32,0,0,1,1.46-1.18A1.34,1.34,0,0,1,316.7,146.9Z" style="fill:#263238"></path><path d="M335.9,164.45l-3.51-1.3a23.75,23.75,0,0,1-2.78,4.55,38.15,38.15,0,0,0-2.73,4" style="fill:none;stroke:#263238;stroke-linecap:round;stroke-linejoin:round"></path><path d="M307.13,179.81a5.12,5.12,0,0,0,5.1,0,38.94,38.94,0,0,0,6-3.94" style="fill:none;stroke:#263238;stroke-linecap:round;stroke-linejoin:round"></path><rect x="259.86" y="314.72" width="106.76" height="7.03" style="fill:#8c8c8c;stroke:#263238;stroke-linecap:round;stroke-linejoin:round"></rect><path d="M259.64,463.23h0a3.29,3.29,0,0,1-3.29-3.3V291.66a3.29,3.29,0,0,1,3.29-3.3h0a3.3,3.3,0,0,1,3.3,3.3V459.93A3.3,3.3,0,0,1,259.64,463.23Z" style="fill:#8c8c8c;stroke:#263238;stroke-linecap:round;stroke-linejoin:round"></path><path d="M368.6,463.23h0a3.29,3.29,0,0,1-3.29-3.3V291.66a3.29,3.29,0,0,1,3.29-3.3h0a3.3,3.3,0,0,1,3.3,3.3V459.93A3.3,3.3,0,0,1,368.6,463.23Z" style="fill:#8c8c8c;stroke:#263238;stroke-linecap:round;stroke-linejoin:round"></path></g><g id="freepik--character-1--inject-22"><ellipse cx="182.5" cy="457" rx="53.5" ry="12" style="fill:#263238;stroke:#263238;stroke-linecap:round;stroke-linejoin:round;stroke-width:2px"></ellipse><path d="M196.25,436.07s10.48,7.55,13.33,9.31,7.48,1.6,5.29,5.4S201.51,454,195,454.23s-13.55-2.32-20.53-2.55-.89-12.52-.89-12.52S189.15,432.13,196.25,436.07Z" style="fill:#fff;stroke:#263238;stroke-linecap:round;stroke-linejoin:round"></path><path d="M214.87,450.78a3.5,3.5,0,0,0,.56-1.69c-9.42,3.57-24.84-.39-28.67-.26l-15.44.52a3,3,0,0,0,3.16,2.33c7,.23,14,2.77,20.53,2.55S212.67,454.57,214.87,450.78Z" style="fill:#fff;stroke:#263238;stroke-linecap:round;stroke-linejoin:round"></path><path d="M213,240.83s2.08,52.43-.61,69.25-6.75,47.62-10.15,57-10.11,44.48-9.9,50.51-.08,11.62-.08,11.62,2.79-.1,3.3,1.28a29,29,0,0,1,.65,5.55s-8.3,1.68-10.59,2.68S171.83,442,171.83,442s-.61-4.16-.68-6.48,2-9.36,2-9.36-2.72-25.46-3.72-41.23,3.41-50.29,3.23-55.86S178,239.23,178,239.23l32.47-1.56Z" style="fill:#92E3A9;stroke:#263238;stroke-linecap:round;stroke-linejoin:round"></path><path d="M168.52,440.26s16.11,9.22,18.95,11,6.13,2.58,5.3,5.39-8.17,5.86-19.77,6.25-22.37-2-26.64-4.68.09-11.15.09-11.15S158.6,435.49,168.52,440.26Z" style="fill:#fff;stroke:#263238;stroke-linecap:round;stroke-linejoin:round"></path><path d="M192.77,456.63a2.67,2.67,0,0,0,.06-1.39c-3.41,1.38-10.77,3.64-21.42,3.15a155.13,155.13,0,0,1-26.92-3.9,4.25,4.25,0,0,0,1.87,3.71c4.27,2.65,15,5.07,26.64,4.68S191.93,459.45,192.77,456.63Z" style="fill:#fff;stroke:#263238;stroke-linecap:round;stroke-linejoin:round"></path><path d="M182.81,313.41s-5.11,55-9.28,69.07-7.43,41.14-7.29,45.32a29.9,29.9,0,0,0,1.18,7.39,5.21,5.21,0,0,1,1.93,2.26,21.3,21.3,0,0,1,.62,4.62s-2.21,3.33-10.47,6.4a54,54,0,0,1-15.22,3.3s.58-24.18-1.84-40.82-1.32-39,.3-46,4.91-19.68,3.71-27.54-3.31-15.68-3.31-15.68l-3.77-15.21Z" style="fill:#92E3A9;stroke:#263238;stroke-linecap:round;stroke-linejoin:round"></path><path d="M185.68,137.07s-10.42,3.45-13.72,6.65,6.1,98,6.1,98,15.27,2.58,21.15,2.38S213,240.83,213,240.83s-2.11-53.2-5-64.56a171.24,171.24,0,0,0-6.91-21.14l-12.3-15.69Z" style="fill:#fff;stroke:#263238;stroke-linecap:round;stroke-linejoin:round"></path><path d="M198.48,152.82l3.89,10.38-6.74-3.38S197.89,153.72,198.48,152.82Z" style="fill:none;stroke:#263238;stroke-linecap:round;stroke-linejoin:round"></path><path d="M195.07,163l3.41-10.14-3.21-6.16S193,159.78,195.07,163Z" style="fill:none;stroke:#263238;stroke-linecap:round;stroke-linejoin:round"></path><path d="M230,110.23c.64-3-1-15.42-1-15.42s-17.83,7.67-29.74,10.75-21.56,8.22-21.5,12c0,0,2.63,8.67,3.21,11.36s-2.59,8.25-2.59,8.25,7.3,9.11,11.56,13l4.37,18.58,1.64-19.95a83.22,83.22,0,0,0,4.91-7.19s6.43,2.46,8.39,2,12-12.07,12-12.07,6.91-1.23,7.58-2.91-1.68-13.74-1.68-13.74A9,9,0,0,0,230,110.23Z" style="fill:#fff;stroke:#263238;stroke-linecap:round;stroke-linejoin:round"></path><polygon points="200.81 141.62 195.01 138.17 197.03 146.23 200.81 141.62" style="fill:#263238;stroke:#263238;stroke-linecap:round;stroke-linejoin:round"></polygon><path d="M220.83,116.68c-.38,1.26-1.12,2.15-1.65,2s-.65-1.31-.27-2.57,1.12-2.15,1.65-2S221.21,115.42,220.83,116.68Z" style="fill:#263238"></path><path d="M217.44,111.64s3.59-3.59,6.64-.15" style="fill:none;stroke:#263238;stroke-linecap:round;stroke-linejoin:round"></path><path d="M216.07,132.7s-3.94-.44-6-5.13" style="fill:none;stroke:#263238;stroke-linecap:round;stroke-linejoin:round"></path><path d="M190.29,114.14s10-3.44,23.33-8.35,21.46-8.71,20.3-14.1-9.48-13.09-22-15.52-26,.72-31.63,5.52-8.89,11.14-7.73,16.53S175,117.16,178,120.36,190.29,114.14,190.29,114.14Z" style="fill:#263238;stroke:#263238;stroke-linecap:round;stroke-linejoin:round"></path><path d="M193.51,116s-2.28-8.23-6.2-7.38-5.81,10-2.84,14.2,7.44,1.22,7.44,1.22" style="fill:#fff;stroke:#263238;stroke-linecap:round;stroke-linejoin:round"></path><path d="M173.14,101.16s-8.41-10.5-13.92-11.11-11.64,7.89-13.09,16.66,7,12.09,12.84,10.83,14.7-10.34,14.68-11.62S173.14,101.16,173.14,101.16Z" style="fill:#263238;stroke:#263238;stroke-linecap:round;stroke-linejoin:round"></path><path d="M192.5,151.86l-7.4,12.95s-6.3-15.59-7.67-19.06a45.88,45.88,0,0,1-2.06-8.95l3.2-1.87Z" style="fill:#fff;stroke:#263238;stroke-linecap:round;stroke-linejoin:round"></path><path d="M228.71,249.89s-4.05,1.79-6.51,1.87-1-6-.08-10.41S227,246.66,228.71,249.89Z" style="fill:#fff;stroke:#263238;stroke-linecap:round;stroke-linejoin:round"></path><path d="M225.38,240.41l-1.28,19-8-10.69-.86-1.07-1-14.22S223.57,235.54,225.38,240.41Z" style="fill:#fff;stroke:#263238;stroke-linecap:round;stroke-linejoin:round"></path><path d="M212.88,219.46s8.13,5.2,11.69,13.31a57.69,57.69,0,0,1,4.14,17.12s-4.12-8.35-7.76-10.7a23.11,23.11,0,0,0-7.23-3Z" style="fill:#fff;stroke:#263238;stroke-linecap:round;stroke-linejoin:round"></path><path d="M175.37,136.8S181,156.2,185.73,166s7.16,40.17,9,46.15c0,0-.95,54.39-.4,70.64s1.52,58.49,1.52,58.49-13.37,3.24-36.75-1.08S120.15,329,120.15,329s16.15-99.51,16.57-100.92,7.92-26.75,8.75-43.5.57-24.18,7.72-32.79S175.37,136.8,175.37,136.8Z" style="fill:#fff;stroke:#263238;stroke-linecap:round;stroke-linejoin:round"></path><path d="M155.44,321.52c-1.39-.31-2.79-.68-4.19-1.09" style="fill:none;stroke:#263238;stroke-linecap:round;stroke-linejoin:round"></path><path d="M146.2,315.38,149,281.92c25.23,5.51,41.27,2.29,41.27,2.29l.46,37.59a86.49,86.49,0,0,1-31.12.54" style="fill:none;stroke:#263238;stroke-linecap:round;stroke-linejoin:round"></path><path d="M190.22,288.33s-16,3.23-41.27-2.29" style="fill:none;stroke:#263238;stroke-linecap:round;stroke-linejoin:round"></path><path d="M216.23,245.66s8,10.14,8.8,17-2.7,25.58-2.7,25.58Z" style="fill:#fff;stroke:#263238;stroke-linecap:round;stroke-linejoin:round"></path><path d="M195.23,152.86s11.23,21.76,13.17,37.95,2.79,68.67,2.39,84.48-1.11,63.23-1.11,63.23,15.61-5.64,16.38-10.32-3.8-43.54-5.55-54.17-5.64-43-5.84-49,3.31-25.66-.27-35.3a128,128,0,0,1-5.3-19.33s.84-6.17-4-13S194.14,148.25,195.23,152.86Z" style="fill:#fff;stroke:#263238;stroke-linecap:round;stroke-linejoin:round"></path><path d="M205.19,166s3,14.66,4.07,21.9" style="fill:none;stroke:#263238;stroke-linecap:round;stroke-linejoin:round;stroke-width:2px"></path><path d="M213.77,216.82s-2.93-.53-3.79-1.33S205.44,204,205.23,198s1.9-11.71,4-11.78,4,7.14,3.43,15.27c-.29,4.23-6.45,12.07-10.34,13.86s-4.57.16-4.57.16" style="fill:none;stroke:#263238;stroke-linecap:round;stroke-linejoin:round;stroke-width:2px"></path><path d="M198.12,215.06a1.66,1.66,0,1,1-1.72-1.61A1.67,1.67,0,0,1,198.12,215.06Z" style="fill:#263238"></path><path d="M216.89,216.71a1.67,1.67,0,1,1-1.72-1.6A1.67,1.67,0,0,1,216.89,216.71Z" style="fill:#263238"></path><path d="M202.31,168.72s.21-.71,2.31-.31,7.14,4.87,7.14,4.87-.85-11.36-4.73-16.11S196.27,148,196.27,148a2.36,2.36,0,0,0-.59,3.28C196.91,153.34,202.31,168.72,202.31,168.72Z" style="fill:#fff;stroke:#263238;stroke-linecap:round;stroke-linejoin:round"></path><path d="M173.83,154.75s5.67,32.25,6.22,48.65" style="fill:none;stroke:#263238;stroke-linecap:round;stroke-linejoin:round;stroke-width:2px"></path><path d="M185.22,202.4a5.2,5.2,0,1,0-5,5.36A5.2,5.2,0,0,0,185.22,202.4Z" style="fill:#fff;stroke:#263238;stroke-linecap:round;stroke-linejoin:round"></path><path d="M175.37,136.8s-3.87,0-5.44,1.88a29.24,29.24,0,0,0-2,2.63s1,23,1.22,29,.32,9.52.32,9.52,8.84-6.34,11.81-7.84a55.2,55.2,0,0,1,6-2.52l-9.48-26.16Z" style="fill:#fff;stroke:#263238;stroke-linecap:round;stroke-linejoin:round"></path><polygon points="139.74 277.57 207.78 271.43 203.82 227.16 136.16 236.58 139.74 277.57" style="fill:#263238;stroke:#263238;stroke-linecap:round;stroke-linejoin:round"></polygon><path d="M170.44,256.26s4.33,2.79,5.63,2.75a34.52,34.52,0,0,1,5.24,1c.82.13,4.05,4.1,4.91,5.37s4.73,5.06,4.75,5.71-1.26,1.18-2.24,1.21a7,7,0,0,1-2.63-.89,37.21,37.21,0,0,1,1.45,4.35,2.3,2.3,0,0,1-2.06,1.87,21.44,21.44,0,0,1-4.27-1s-.61,1.16-3.18,2.22-2.72,1.4-4.84,1.31a7.75,7.75,0,0,1-6-3.06c-1.54-2.06-6-8.59-6.34-9.07a7.48,7.48,0,0,0-.84-.95l9.57-10.75Z" style="fill:#fff;stroke:#263238;stroke-linecap:round;stroke-linejoin:round"></path><path d="M160,145.68s-15.59,6.1-19.37,13.35-26.25,66.56-24.87,70.54,17.2,18.32,21.72,23.74S157,272,157,272l15-15.37-26.09-31.51,12-40.36" style="fill:#fff;stroke:#263238;stroke-linecap:round;stroke-linejoin:round"></path></g></svg>